<svg width="41" height="41" viewBox="0 0 41 41" fill="none" xmlns="http://www.w3.org/2000/svg">
<g clip-path="url(#clip0_68_4563)">
<path d="M3.16117 0H37.8388C39.5908 0 41 1.4092 41 3.16117V37.8388C41 39.5908 39.5908 41 37.8388 41H3.16117C1.4092 41 0 39.5908 0 37.8388V3.16117C0 1.4092 1.4092 0 3.16117 0Z" fill="#1F1F2D"/>
<path d="M17.4053 5.9986H16.0532V7.35066H17.4053V5.9986Z" fill="black"/>
<path d="M18.7573 5.9986H17.4053V7.35066H18.7573V5.9986Z" fill="black"/>
<path d="M20.1094 5.9986H18.7573V7.35066H20.1094V5.9986Z" fill="black"/>
<path d="M21.4614 5.9986H20.1094V7.35066H21.4614V5.9986Z" fill="black"/>
<path d="M22.7949 5.9986H21.4429V7.35066H22.7949V5.9986Z" fill="black"/>
<path d="M24.147 5.9986H22.7949V7.35066H24.147V5.9986Z" fill="black"/>
<path d="M25.499 5.9986H24.147V7.35066H25.499V5.9986Z" fill="black"/>
<path d="M14.7012 7.33163H13.3491V8.6837H14.7012V7.33163Z" fill="black"/>
<path d="M16.0532 7.33163H14.7012V8.6837H16.0532V7.33163Z" fill="black"/>
<path d="M17.4053 7.33163H16.0532V8.6837H17.4053V7.33163Z" fill="#1F1F2D"/>
<path d="M18.7573 7.33163H17.4053V8.6837H18.7573V7.33163Z" fill="#1F1F2D"/>
<path d="M20.1094 7.33163H18.7573V8.6837H20.1094V7.33163Z" fill="#1F1F2D"/>
<path d="M21.4614 7.33163H20.1094V8.6837H21.4614V7.33163Z" fill="#1F1F2D"/>
<path d="M22.7949 7.33163H21.4429V8.6837H22.7949V7.33163Z" fill="#1F1F2D"/>
<path d="M24.147 7.33163H22.7949V8.6837H24.147V7.33163Z" fill="#1F1F2D"/>
<path d="M25.499 7.33163H24.147V8.6837H25.499V7.33163Z" fill="black"/>
<path d="M26.8511 7.33163H25.499V8.6837H26.8511V7.33163Z" fill="black"/>
<path d="M13.3682 8.68369H12.0161V10.0358H13.3682V8.68369Z" fill="black"/>
<path d="M14.7012 8.68369H13.3491V10.0358H14.7012V8.68369Z" fill="black"/>
<path d="M16.0532 8.68369H14.7012V10.0358H16.0532V8.68369Z" fill="#1F1F2D"/>
<path d="M17.4053 8.68369H16.0532V10.0358H17.4053V8.68369Z" fill="#1F1F2D"/>
<path d="M18.7573 8.68369H17.4053V10.0358H18.7573V8.68369Z" fill="#1F1F2D"/>
<path d="M20.1094 8.68369H18.7573V10.0358H20.1094V8.68369Z" fill="#1F1F2D"/>
<path d="M21.4614 8.68369H20.1094V10.0358H21.4614V8.68369Z" fill="#1F1F2D"/>
<path d="M22.7949 8.68369H21.4429V10.0358H22.7949V8.68369Z" fill="#1F1F2D"/>
<path d="M24.147 8.68369H22.7949V10.0358H24.147V8.68369Z" fill="#1F1F2D"/>
<path d="M25.499 8.68369H24.147V10.0358H25.499V8.68369Z" fill="#1F1F2D"/>
<path d="M26.8511 8.68369H25.499V10.0358H26.8511V8.68369Z" fill="#1F1F2D"/>
<path d="M28.2031 8.68369H26.8511V10.0358H28.2031V8.68369Z" fill="black"/>
<path d="M29.5552 8.68369H28.2031V10.0358H29.5552V8.68369Z" fill="black"/>
<path d="M12.0161 10.0358H10.6641V11.3878H12.0161V10.0358Z" fill="black"/>
<path d="M13.3682 10.0358H12.0161V11.3878H13.3682V10.0358Z" fill="#1F1F2D"/>
<path d="M14.7012 10.0358H13.3491V11.3878H14.7012V10.0358Z" fill="#1F1F2D"/>
<path d="M16.0532 10.0358H14.7012V11.3878H16.0532V10.0358Z" fill="#1F1F2D"/>
<path d="M17.4053 10.0358H16.0532V11.3878H17.4053V10.0358Z" fill="#1F1F2D"/>
<path d="M18.7573 10.0358H17.4053V11.3878H18.7573V10.0358Z" fill="#1F1F2D"/>
<path d="M20.1094 10.0358H18.7573V11.3878H20.1094V10.0358Z" fill="#1F1F2D"/>
<path d="M21.4614 10.0358H20.1094V11.3878H21.4614V10.0358Z" fill="#1F1F2D"/>
<path d="M22.7949 10.0358H21.4429V11.3878H22.7949V10.0358Z" fill="#1F1F2D"/>
<path d="M24.147 10.0358H22.7949V11.3878H24.147V10.0358Z" fill="#1F1F2D"/>
<path d="M25.499 10.0358H24.147V11.3878H25.499V10.0358Z" fill="#1F1F2D"/>
<path d="M26.8511 10.0358H25.499V11.3878H26.8511V10.0358Z" fill="#1F1F2D"/>
<path d="M28.2031 10.0358H26.8511V11.3878H28.2031V10.0358Z" fill="#1F1F2D"/>
<path d="M29.5552 10.0358H28.2031V11.3878H29.5552V10.0358Z" fill="black"/>
<path d="M30.8882 10.0358H29.5361V11.3878H30.8882V10.0358Z" fill="black"/>
<path d="M10.6641 11.3878H9.31201V12.7399H10.6641V11.3878Z" fill="black"/>
<path d="M12.0161 11.3878H10.6641V12.7399H12.0161V11.3878Z" fill="#1F1F2D"/>
<path d="M13.3682 11.3878H12.0161V12.7399H13.3682V11.3878Z" fill="#1F1F2D"/>
<path d="M14.7012 11.3878H13.3491V12.7399H14.7012V11.3878Z" fill="black"/>
<path d="M16.0532 11.3878H14.7012V12.7399H16.0532V11.3878Z" fill="black"/>
<path d="M17.4053 11.3878H16.0532V12.7399H17.4053V11.3878Z" fill="black"/>
<path d="M18.7573 11.3878H17.4053V12.7399H18.7573V11.3878Z" fill="black"/>
<path d="M20.1094 11.3878H18.7573V12.7399H20.1094V11.3878Z" fill="black"/>
<path d="M21.4614 11.3878H20.1094V12.7399H21.4614V11.3878Z" fill="black"/>
<path d="M22.7949 11.3878H21.4429V12.7399H22.7949V11.3878Z" fill="black"/>
<path d="M24.147 11.3878H22.7949V12.7399H24.147V11.3878Z" fill="black"/>
<path d="M25.499 11.3878H24.147V12.7399H25.499V11.3878Z" fill="black"/>
<path d="M26.8511 11.3878H25.499V12.7399H26.8511V11.3878Z" fill="black"/>
<path d="M28.2031 11.3878H26.8511V12.7399H28.2031V11.3878Z" fill="#1F1F2D"/>
<path d="M29.5552 11.3878H28.2031V12.7399H29.5552V11.3878Z" fill="#1F1F2D"/>
<path d="M30.8882 11.3878H29.5361V12.7399H30.8882V11.3878Z" fill="black"/>
<path d="M32.2403 11.3878H30.8882V12.7399H32.2403V11.3878Z" fill="black"/>
<path d="M9.31203 12.7209H7.95996V14.0729H9.31203V12.7209Z" fill="black"/>
<path d="M10.6641 12.7209H9.31201V14.0729H10.6641V12.7209Z" fill="#1F1F2D"/>
<path d="M12.0161 12.7209H10.6641V14.0729H12.0161V12.7209Z" fill="#1F1F2D"/>
<path d="M13.3682 12.7209H12.0161V14.0729H13.3682V12.7209Z" fill="black"/>
<path d="M14.7012 12.7209H13.3491V14.0729H14.7012V12.7209Z" fill="black"/>
<path d="M16.0532 12.7209H14.7012V14.0729H16.0532V12.7209Z" fill="black"/>
<path d="M17.4053 12.7209H16.0532V14.0729H17.4053V12.7209Z" fill="black"/>
<path d="M18.7573 12.7209H17.4053V14.0729H18.7573V12.7209Z" fill="black"/>
<path d="M20.1094 12.7209H18.7573V14.0729H20.1094V12.7209Z" fill="black"/>
<path d="M21.4614 12.7209H20.1094V14.0729H21.4614V12.7209Z" fill="black"/>
<path d="M22.7949 12.7209H21.4429V14.0729H22.7949V12.7209Z" fill="black"/>
<path d="M24.147 12.7209H22.7949V14.0729H24.147V12.7209Z" fill="black"/>
<path d="M25.499 12.7209H24.147V14.0729H25.499V12.7209Z" fill="black"/>
<path d="M26.8511 12.7209H25.499V14.0729H26.8511V12.7209Z" fill="black"/>
<path d="M28.2031 12.7209H26.8511V14.0729H28.2031V12.7209Z" fill="black"/>
<path d="M29.5552 12.7209H28.2031V14.0729H29.5552V12.7209Z" fill="#1F1F2D"/>
<path d="M30.8882 12.7209H29.5361V14.0729H30.8882V12.7209Z" fill="#1F1F2D"/>
<path d="M32.2403 12.7209H30.8882V14.0729H32.2403V12.7209Z" fill="black"/>
<path d="M7.95998 14.0729H6.60791V15.425H7.95998V14.0729Z" fill="black"/>
<path d="M9.31203 14.0729H7.95996V15.425H9.31203V14.0729Z" fill="#1F1F2D"/>
<path d="M10.6641 14.0729H9.31201V15.425H10.6641V14.0729Z" fill="#1F1F2D"/>
<path d="M12.0161 14.0729H10.6641V15.425H12.0161V14.0729Z" fill="black"/>
<path d="M13.3682 14.0729H12.0161V15.425H13.3682V14.0729Z" fill="black"/>
<path d="M14.7012 14.0729H13.3491V15.425H14.7012V14.0729Z" fill="#79A1F7"/>
<path d="M16.0532 14.0729H14.7012V15.425H16.0532V14.0729Z" fill="#588DDB"/>
<path d="M17.4053 14.0729H16.0532V15.425H17.4053V14.0729Z" fill="#79A1F7"/>
<path d="M18.7573 14.0729H17.4053V15.425H18.7573V14.0729Z" fill="#79A1F7"/>
<path d="M20.1094 14.0729H18.7573V15.425H20.1094V14.0729Z" fill="#79A1F7"/>
<path d="M21.4614 14.0729H20.1094V15.425H21.4614V14.0729Z" fill="#79A1F7"/>
<path d="M22.7949 14.0729H21.4429V15.425H22.7949V14.0729Z" fill="#79A1F7"/>
<path d="M24.147 14.0729H22.7949V15.425H24.147V14.0729Z" fill="#588DDB"/>
<path d="M25.499 14.0729H24.147V15.425H25.499V14.0729Z" fill="#79A1F7"/>
<path d="M26.8511 14.0729H25.499V15.425H26.8511V14.0729Z" fill="#588DDB"/>
<path d="M28.2031 14.0729H26.8511V15.425H28.2031V14.0729Z" fill="black"/>
<path d="M29.5552 14.0729H28.2031V15.425H29.5552V14.0729Z" fill="black"/>
<path d="M30.8882 14.0729H29.5361V15.425H30.8882V14.0729Z" fill="#1F1F2D"/>
<path d="M32.2403 14.0729H30.8882V15.425H32.2403V14.0729Z" fill="#1F1F2D"/>
<path d="M33.5923 14.0729H32.2402V15.425H33.5923V14.0729Z" fill="black"/>
<path d="M7.95998 15.425H6.60791V16.7771H7.95998V15.425Z" fill="black"/>
<path d="M9.31203 15.425H7.95996V16.7771H9.31203V15.425Z" fill="#1F1F2D"/>
<path d="M10.6641 15.425H9.31201V16.7771H10.6641V15.425Z" fill="black"/>
<path d="M12.0161 15.425H10.6641V16.7771H12.0161V15.425Z" fill="black"/>
<path d="M13.3682 15.425H12.0161V16.7771H13.3682V15.425Z" fill="#588DDB"/>
<path d="M14.7012 15.425H13.3491V16.7771H14.7012V15.425Z" fill="#79A1F7"/>
<path d="M16.0532 15.425H14.7012V16.7771H16.0532V15.425Z" fill="#79A1F7"/>
<path d="M17.4053 15.425H16.0532V16.7771H17.4053V15.425Z" fill="#79A1F7"/>
<path d="M18.7573 15.425H17.4053V16.7771H18.7573V15.425Z" fill="#79A1F7"/>
<path d="M20.1094 15.425H18.7573V16.7771H20.1094V15.425Z" fill="#79A1F7"/>
<path d="M21.4614 15.425H20.1094V16.7771H21.4614V15.425Z" fill="#79A1F7"/>
<path d="M22.7949 15.425H21.4429V16.7771H22.7949V15.425Z" fill="#79A1F7"/>
<path d="M24.147 15.425H22.7949V16.7771H24.147V15.425Z" fill="#79A1F7"/>
<path d="M25.499 15.425H24.147V16.7771H25.499V15.425Z" fill="#79A1F7"/>
<path d="M28.2031 15.425H26.8511V16.7771H28.2031V15.425Z" fill="#79A1F7"/>
<path d="M26.8511 15.425H25.499V16.7771H26.8511V15.425Z" fill="#79A1F7"/>
<path d="M29.5552 15.425H28.2031V16.7771H29.5552V15.425Z" fill="black"/>
<path d="M30.8882 15.425H29.5361V16.7771H30.8882V15.425Z" fill="black"/>
<path d="M32.2403 15.425H30.8882V16.7771H32.2403V15.425Z" fill="#1F1F2D"/>
<path d="M33.5923 15.425H32.2402V16.7771H33.5923V15.425Z" fill="#1F1F2D"/>
<path d="M34.9444 15.425H33.5923V16.7771H34.9444V15.425Z" fill="black"/>
<path d="M6.60793 16.777H5.25586V18.1291H6.60793V16.777Z" fill="black"/>
<path d="M7.95998 16.777H6.60791V18.1291H7.95998V16.777Z" fill="#1F1F2D"/>
<path d="M9.31203 16.777H7.95996V18.1291H9.31203V16.777Z" fill="black"/>
<path d="M10.6641 16.777H9.31201V18.1291H10.6641V16.777Z" fill="black"/>
<path d="M12.0161 16.777H10.6641V18.1291H12.0161V16.777Z" fill="black"/>
<path d="M13.3682 16.777H12.0161V18.1291H13.3682V16.777Z" fill="black"/>
<path d="M14.7012 16.777H13.3491V18.1291H14.7012V16.777Z" fill="black"/>
<path d="M16.0532 16.777H14.7012V18.1291H16.0532V16.777Z" fill="black"/>
<path d="M17.4053 16.777H16.0532V18.1291H17.4053V16.777Z" fill="black"/>
<path d="M18.7573 16.777H17.4053V18.1291H18.7573V16.777Z" fill="black"/>
<path d="M20.1094 16.777H18.7573V18.1291H20.1094V16.777Z" fill="black"/>
<path d="M21.4614 16.777H20.1094V18.1291H21.4614V16.777Z" fill="black"/>
<path d="M22.7949 16.777H21.4429V18.1291H22.7949V16.777Z" fill="black"/>
<path d="M24.147 16.777H22.7949V18.1291H24.147V16.777Z" fill="black"/>
<path d="M25.499 16.777H24.147V18.1291H25.499V16.777Z" fill="black"/>
<path d="M26.8511 16.777H25.499V18.1291H26.8511V16.777Z" fill="black"/>
<path d="M28.2031 16.777H26.8511V18.1291H28.2031V16.777Z" fill="black"/>
<path d="M29.5552 16.777H28.2031V18.1291H29.5552V16.777Z" fill="black"/>
<path d="M30.8882 16.777H29.5361V18.1291H30.8882V16.777Z" fill="black"/>
<path d="M32.2403 16.777H30.8882V18.1291H32.2403V16.777Z" fill="black"/>
<path d="M33.5923 16.777H32.2402V18.1291H33.5923V16.777Z" fill="#1F1F2D"/>
<path d="M34.9444 16.777H33.5923V18.1291H34.9444V16.777Z" fill="black"/>
<path d="M5.25588 18.1101H3.90381V19.4621H5.25588V18.1101Z" fill="black"/>
<path d="M6.60793 18.1101H5.25586V19.4621H6.60793V18.1101Z" fill="#1F1F2D"/>
<path d="M7.95998 18.1101H6.60791V19.4621H7.95998V18.1101Z" fill="black"/>
<path d="M9.31203 18.1101H7.95996V19.4621H9.31203V18.1101Z" fill="black"/>
<path d="M10.6641 18.1101H9.31201V19.4621H10.6641V18.1101Z" fill="#9B004E"/>
<path d="M12.0161 18.1101H10.6641V19.4621H12.0161V18.1101Z" fill="#9B004E"/>
<path d="M13.3682 18.1101H12.0161V19.4621H13.3682V18.1101Z" fill="#9B004E"/>
<path d="M14.7012 18.1101H13.3491V19.4621H14.7012V18.1101Z" fill="#9B004E"/>
<path d="M16.0532 18.1101H14.7012V19.4621H16.0532V18.1101Z" fill="#9B004E"/>
<path d="M17.4053 18.1101H16.0532V19.4621H17.4053V18.1101Z" fill="#9B004E"/>
<path d="M18.7573 18.1101H17.4053V19.4621H18.7573V18.1101Z" fill="#9B004E"/>
<path d="M20.1094 18.1101H18.7573V19.4621H20.1094V18.1101Z" fill="#9B004E"/>
<path d="M21.4614 18.1101H20.1094V19.4621H21.4614V18.1101Z" fill="#9B004E"/>
<path d="M22.7944 18.1101H21.4424V19.4621H22.7944V18.1101Z" fill="#9B004E"/>
<path d="M24.1465 18.1101H22.7944V19.4621H24.1465V18.1101Z" fill="#9B004E"/>
<path d="M25.4985 18.1101H24.1465V19.4621H25.4985V18.1101Z" fill="#9B004E"/>
<path d="M26.8506 18.1101H25.4985V19.4621H26.8506V18.1101Z" fill="#9B004E"/>
<path d="M28.2027 18.1101H26.8506V19.4621H28.2027V18.1101Z" fill="#9B004E"/>
<path d="M29.5547 18.1101H28.2026V19.4621H29.5547V18.1101Z" fill="#9B004E"/>
<path d="M30.8877 18.1101H29.5356V19.4621H30.8877V18.1101Z" fill="#9B004E"/>
<path d="M32.2403 18.1101H30.8882V19.4621H32.2403V18.1101Z" fill="black"/>
<path d="M33.5923 18.1101H32.2402V19.4621H33.5923V18.1101Z" fill="black"/>
<path d="M34.9444 18.1101H33.5923V19.4621H34.9444V18.1101Z" fill="#1F1F2D"/>
<path d="M36.2964 18.1101H34.9443V19.4621H36.2964V18.1101Z" fill="black"/>
<path d="M5.25588 19.4622H3.90381V20.8142H5.25588V19.4622Z" fill="black"/>
<path d="M6.60793 19.4622H5.25586V20.8142H6.60793V19.4622Z" fill="#1F1F2D"/>
<path d="M7.95998 19.4622H6.60791V20.8142H7.95998V19.4622Z" fill="black"/>
<path d="M9.31203 19.4622H7.95996V20.8142H9.31203V19.4622Z" fill="#D80062"/>
<path d="M10.6641 19.4622H9.31201V20.8142H10.6641V19.4622Z" fill="#D80062"/>
<path d="M12.0161 19.4622H10.6641V20.8142H12.0161V19.4622Z" fill="#D80062"/>
<path d="M13.3682 19.4622H12.0161V20.8142H13.3682V19.4622Z" fill="#D80062"/>
<path d="M14.7012 19.4622H13.3491V20.8142H14.7012V19.4622Z" fill="#D80062"/>
<path d="M16.0532 19.4622H14.7012V20.8142H16.0532V19.4622Z" fill="#D80062"/>
<path d="M17.4053 19.4622H16.0532V20.8142H17.4053V19.4622Z" fill="#D80062"/>
<path d="M18.7573 19.4622H17.4053V20.8142H18.7573V19.4622Z" fill="#D80062"/>
<path d="M20.1094 19.4622H18.7573V20.8142H20.1094V19.4622Z" fill="#D80062"/>
<path d="M21.4614 19.4622H20.1094V20.8142H21.4614V19.4622Z" fill="#D80062"/>
<path d="M22.7944 19.4622H21.4424V20.8142H22.7944V19.4622Z" fill="#D80062"/>
<path d="M24.1465 19.4622H22.7944V20.8142H24.1465V19.4622Z" fill="#D80062"/>
<path d="M25.4985 19.4622H24.1465V20.8142H25.4985V19.4622Z" fill="#D80062"/>
<path d="M26.8506 19.4622H25.4985V20.8142H26.8506V19.4622Z" fill="#D80062"/>
<path d="M28.2027 19.4622H26.8506V20.8142H28.2027V19.4622Z" fill="#D80062"/>
<path d="M29.5547 19.4622H28.2026V20.8142H29.5547V19.4622Z" fill="#D80062"/>
<path d="M30.8882 19.4622H29.5361V20.8142H30.8882V19.4622Z" fill="#D80062"/>
<path d="M32.2403 19.4622H30.8882V20.8142H32.2403V19.4622Z" fill="#D80062"/>
<path d="M33.5923 19.4622H32.2402V20.8142H33.5923V19.4622Z" fill="black"/>
<path d="M34.9444 19.4622H33.5923V20.8142H34.9444V19.4622Z" fill="#1F1F2D"/>
<path d="M36.2964 19.4622H34.9443V20.8142H36.2964V19.4622Z" fill="black"/>
<path d="M5.25588 20.8142H3.90381V22.1663H5.25588V20.8142Z" fill="black"/>
<path d="M6.60793 20.8142H5.25586V22.1663H6.60793V20.8142Z" fill="#1F1F2D"/>
<path d="M7.95998 20.8142H6.60791V22.1663H7.95998V20.8142Z" fill="black"/>
<path d="M9.31203 20.8142H7.95996V22.1663H9.31203V20.8142Z" fill="#F73C76"/>
<path d="M10.6641 20.8142H9.31201V22.1663H10.6641V20.8142Z" fill="#F73C76"/>
<path d="M12.0161 20.8142H10.6641V22.1663H12.0161V20.8142Z" fill="#F73C76"/>
<path d="M13.3682 20.8142H12.0161V22.1663H13.3682V20.8142Z" fill="#F73C76"/>
<path d="M14.7012 20.8142H13.3491V22.1663H14.7012V20.8142Z" fill="#F73C76"/>
<path d="M16.0532 20.8142H14.7012V22.1663H16.0532V20.8142Z" fill="#F73C76"/>
<path d="M17.4053 20.8142H16.0532V22.1663H17.4053V20.8142Z" fill="#F73C76"/>
<path d="M18.7573 20.8142H17.4053V22.1663H18.7573V20.8142Z" fill="#F73C76"/>
<path d="M20.1094 20.8142H18.7573V22.1663H20.1094V20.8142Z" fill="#F73C76"/>
<path d="M21.4614 20.8142H20.1094V22.1663H21.4614V20.8142Z" fill="#F73C76"/>
<path d="M22.7949 20.8142H21.4429V22.1663H22.7949V20.8142Z" fill="#F73C76"/>
<path d="M24.147 20.8142H22.7949V22.1663H24.147V20.8142Z" fill="#F73C76"/>
<path d="M25.499 20.8142H24.147V22.1663H25.499V20.8142Z" fill="#F73C76"/>
<path d="M26.8511 20.8142H25.499V22.1663H26.8511V20.8142Z" fill="#F73C76"/>
<path d="M28.2031 20.8142H26.8511V22.1663H28.2031V20.8142Z" fill="#F73C76"/>
<path d="M29.5552 20.8142H28.2031V22.1663H29.5552V20.8142Z" fill="#F73C76"/>
<path d="M30.8882 20.8142H29.5361V22.1663H30.8882V20.8142Z" fill="#F73C76"/>
<path d="M32.2403 20.8142H30.8882V22.1663H32.2403V20.8142Z" fill="#F73C76"/>
<path d="M33.5923 20.8142H32.2402V22.1663H33.5923V20.8142Z" fill="black"/>
<path d="M34.9444 20.8142H33.5923V22.1663H34.9444V20.8142Z" fill="#1F1F2D"/>
<path d="M36.2964 20.8142H34.9443V22.1663H36.2964V20.8142Z" fill="black"/>
<path d="M5.25588 22.1663H3.90381V23.5184H5.25588V22.1663Z" fill="black"/>
<path d="M6.60793 22.1663H5.25586V23.5184H6.60793V22.1663Z" fill="#1F1F2D"/>
<path d="M7.95998 22.1663H6.60791V23.5184H7.95998V22.1663Z" fill="black"/>
<path d="M9.31203 22.1663H7.95996V23.5184H9.31203V22.1663Z" fill="#FF4D7C"/>
<path d="M10.6641 22.1663H9.31201V23.5184H10.6641V22.1663Z" fill="#FF4D7C"/>
<path d="M12.0161 22.1663H10.6641V23.5184H12.0161V22.1663Z" fill="#FF4D7C"/>
<path d="M13.3682 22.1663H12.0161V23.5184H13.3682V22.1663Z" fill="#FF4D7C"/>
<path d="M14.7012 22.1663H13.3491V23.5184H14.7012V22.1663Z" fill="#FF4D7C"/>
<path d="M16.0532 22.1663H14.7012V23.5184H16.0532V22.1663Z" fill="#FF4D7C"/>
<path d="M17.4053 22.1663H16.0532V23.5184H17.4053V22.1663Z" fill="#FF4D7C"/>
<path d="M18.7573 22.1663H17.4053V23.5184H18.7573V22.1663Z" fill="#FF4D7C"/>
<path d="M20.1094 22.1663H18.7573V23.5184H20.1094V22.1663Z" fill="#FF4D7C"/>
<path d="M21.4614 22.1663H20.1094V23.5184H21.4614V22.1663Z" fill="#FF4D7C"/>
<path d="M22.7949 22.1663H21.4429V23.5184H22.7949V22.1663Z" fill="#FF4D7C"/>
<path d="M24.147 22.1663H22.7949V23.5184H24.147V22.1663Z" fill="#FF4D7C"/>
<path d="M25.499 22.1663H24.147V23.5184H25.499V22.1663Z" fill="#FF4D7C"/>
<path d="M26.8511 22.1663H25.499V23.5184H26.8511V22.1663Z" fill="#FF4D7C"/>
<path d="M28.2031 22.1663H26.8511V23.5184H28.2031V22.1663Z" fill="#FF4D7C"/>
<path d="M29.5552 22.1663H28.2031V23.5184H29.5552V22.1663Z" fill="#FF4D7C"/>
<path d="M30.8882 22.1663H29.5361V23.5184H30.8882V22.1663Z" fill="#FF4D7C"/>
<path d="M32.2403 22.1663H30.8882V23.5184H32.2403V22.1663Z" fill="#FF4D7C"/>
<path d="M33.5923 22.1663H32.2402V23.5184H33.5923V22.1663Z" fill="black"/>
<path d="M34.9444 22.1663H33.5923V23.5184H34.9444V22.1663Z" fill="#1F1F2D"/>
<path d="M36.2964 22.1663H34.9443V23.5184H36.2964V22.1663Z" fill="black"/>
<path d="M5.25588 23.4993H3.90381V24.8514H5.25588V23.4993Z" fill="black"/>
<path d="M6.60793 23.4993H5.25586V24.8514H6.60793V23.4993Z" fill="#1F1F2D"/>
<path d="M7.95998 23.4993H6.60791V24.8514H7.95998V23.4993Z" fill="black"/>
<path d="M9.31203 23.4993H7.95996V24.8514H9.31203V23.4993Z" fill="#FF6485"/>
<path d="M10.6641 23.4993H9.31201V24.8514H10.6641V23.4993Z" fill="#FF6485"/>
<path d="M12.0161 23.4993H10.6641V24.8514H12.0161V23.4993Z" fill="#FF6485"/>
<path d="M13.3682 23.4993H12.0161V24.8514H13.3682V23.4993Z" fill="#FF6485"/>
<path d="M14.7012 23.4993H13.3491V24.8514H14.7012V23.4993Z" fill="black"/>
<path d="M16.0532 23.4993H14.7012V24.8514H16.0532V23.4993Z" fill="black"/>
<path d="M17.4053 23.4993H16.0532V24.8514H17.4053V23.4993Z" fill="black"/>
<path d="M18.7573 23.4993H17.4053V24.8514H18.7573V23.4993Z" fill="black"/>
<path d="M20.1094 23.4993H18.7573V24.8514H20.1094V23.4993Z" fill="#FF6485"/>
<path d="M21.4614 23.4993H20.1094V24.8514H21.4614V23.4993Z" fill="#FF6485"/>
<path d="M22.7949 23.4993H21.4429V24.8514H22.7949V23.4993Z" fill="black"/>
<path d="M24.147 23.4993H22.7949V24.8514H24.147V23.4993Z" fill="black"/>
<path d="M25.499 23.4993H24.147V24.8514H25.499V23.4993Z" fill="black"/>
<path d="M26.8511 23.4993H25.499V24.8514H26.8511V23.4993Z" fill="black"/>
<path d="M28.2031 23.4993H26.8511V24.8514H28.2031V23.4993Z" fill="#FF6485"/>
<path d="M29.5552 23.4993H28.2031V24.8514H29.5552V23.4993Z" fill="#FF6485"/>
<path d="M30.8882 23.4993H29.5361V24.8514H30.8882V23.4993Z" fill="#FF6485"/>
<path d="M32.2403 23.4993H30.8882V24.8514H32.2403V23.4993Z" fill="#FF6485"/>
<path d="M33.5923 23.4993H32.2402V24.8514H33.5923V23.4993Z" fill="black"/>
<path d="M34.9444 23.4993H33.5923V24.8514H34.9444V23.4993Z" fill="#1F1F2D"/>
<path d="M36.2964 23.4993H34.9443V24.8514H36.2964V23.4993Z" fill="black"/>
<path d="M5.25588 24.8514H3.90381V26.2034H5.25588V24.8514Z" fill="black"/>
<path d="M6.60793 24.8514H5.25586V26.2034H6.60793V24.8514Z" fill="#1F1F2D"/>
<path d="M7.95998 24.8514H6.60791V26.2034H7.95998V24.8514Z" fill="black"/>
<path d="M9.31203 24.8514H7.95996V26.2034H9.31203V24.8514Z" fill="#F7768E"/>
<path d="M10.6641 24.8514H9.31201V26.2034H10.6641V24.8514Z" fill="#F7768E"/>
<path d="M12.0161 24.8514H10.6641V26.2034H12.0161V24.8514Z" fill="#F7768E"/>
<path d="M13.3682 24.8514H12.0161V26.2034H13.3682V24.8514Z" fill="black"/>
<path d="M14.7012 24.8514H13.3491V26.2034H14.7012V24.8514Z" fill="white"/>
<path d="M16.0532 24.8514H14.7012V26.2034H16.0532V24.8514Z" fill="white"/>
<path d="M17.4053 24.8514H16.0532V26.2034H17.4053V24.8514Z" fill="white"/>
<path d="M18.7573 24.8514H17.4053V26.2034H18.7573V24.8514Z" fill="#C1C1C1"/>
<path d="M20.1094 24.8514H18.7573V26.2034H20.1094V24.8514Z" fill="black"/>
<path d="M21.4614 24.8514H20.1094V26.2034H21.4614V24.8514Z" fill="black"/>
<path d="M22.7949 24.8514H21.4429V26.2034H22.7949V24.8514Z" fill="white"/>
<path d="M24.147 24.8514H22.7949V26.2034H24.147V24.8514Z" fill="white"/>
<path d="M25.499 24.8514H24.147V26.2034H25.499V24.8514Z" fill="white"/>
<path d="M26.8511 24.8514H25.499V26.2034H26.8511V24.8514Z" fill="#C1C1C1"/>
<path d="M28.2031 24.8514H26.8511V26.2034H28.2031V24.8514Z" fill="black"/>
<path d="M29.5552 24.8514H28.2031V26.2034H29.5552V24.8514Z" fill="#F7768E"/>
<path d="M30.8882 24.8514H29.5361V26.2034H30.8882V24.8514Z" fill="#F7768E"/>
<path d="M32.2403 24.8514H30.8882V26.2034H32.2403V24.8514Z" fill="#F7768E"/>
<path d="M33.5923 24.8514H32.2402V26.2034H33.5923V24.8514Z" fill="black"/>
<path d="M34.9444 24.8514H33.5923V26.2034H34.9444V24.8514Z" fill="#1F1F2D"/>
<path d="M36.2964 24.8514H34.9443V26.2034H36.2964V24.8514Z" fill="black"/>
<path d="M6.60793 26.2034H5.25586V27.5555H6.60793V26.2034Z" fill="black"/>
<path d="M7.95998 26.2034H6.60791V27.5555H7.95998V26.2034Z" fill="#1F1F2D"/>
<path d="M9.31203 26.2034H7.95996V27.5555H9.31203V26.2034Z" fill="black"/>
<path d="M10.6641 26.2034H9.31201V27.5555H10.6641V26.2034Z" fill="black"/>
<path d="M12.0161 26.2034H10.6641V27.5555H12.0161V26.2034Z" fill="black"/>
<path d="M13.3682 26.2034H12.0161V27.5555H13.3682V26.2034Z" fill="#C1C1C1"/>
<path d="M14.7012 26.2034H13.3491V27.5555H14.7012V26.2034Z" fill="white"/>
<path d="M16.0532 26.2034H14.7012V27.5555H16.0532V26.2034Z" fill="white"/>
<path d="M17.4053 26.2034H16.0532V27.5555H17.4053V26.2034Z" fill="white"/>
<path d="M18.7573 26.2034H17.4053V27.5555H18.7573V26.2034Z" fill="white"/>
<path d="M20.1094 26.2034H18.7573V27.5555H20.1094V26.2034Z" fill="white"/>
<path d="M21.4614 26.2034H20.1094V27.5555H21.4614V26.2034Z" fill="white"/>
<path d="M22.7949 26.2034H21.4429V27.5555H22.7949V26.2034Z" fill="white"/>
<path d="M24.147 26.2034H22.7949V27.5555H24.147V26.2034Z" fill="white"/>
<path d="M25.499 26.2034H24.147V27.5555H25.499V26.2034Z" fill="white"/>
<path d="M26.8511 26.2034H25.499V27.5555H26.8511V26.2034Z" fill="white"/>
<path d="M28.2031 26.2034H26.8511V27.5555H28.2031V26.2034Z" fill="white"/>
<path d="M29.5552 26.2034H28.2031V27.5555H29.5552V26.2034Z" fill="black"/>
<path d="M30.8882 26.2034H29.5361V27.5555H30.8882V26.2034Z" fill="black"/>
<path d="M32.2403 26.2034H30.8882V27.5555H32.2403V26.2034Z" fill="black"/>
<path d="M33.5923 26.2034H32.2402V27.5555H33.5923V26.2034Z" fill="black"/>
<path d="M34.9444 26.2034H33.5923V27.5555H34.9444V26.2034Z" fill="#1F1F2D"/>
<path d="M36.2964 26.2034H34.9443V27.5555H36.2964V26.2034Z" fill="black"/>
<path d="M6.60793 27.5555H5.25586V28.9076H6.60793V27.5555Z" fill="black"/>
<path d="M7.95998 27.5555H6.60791V28.9076H7.95998V27.5555Z" fill="#1F1F2D"/>
<path d="M9.31203 27.5555H7.95996V28.9076H9.31203V27.5555Z" fill="black"/>
<path d="M10.6641 27.5555H9.31201V28.9076H10.6641V27.5555Z" fill="#1E1C1B"/>
<path d="M12.0161 27.5555H10.6641V28.9076H12.0161V27.5555Z" fill="white"/>
<path d="M13.3682 27.5555H12.0161V28.9076H13.3682V27.5555Z" fill="white"/>
<path d="M14.7012 27.5555H13.3491V28.9076H14.7012V27.5555Z" fill="white"/>
<path d="M16.0532 27.5555H14.7012V28.9076H16.0532V27.5555Z" fill="white"/>
<path d="M17.4053 27.5555H16.0532V28.9076H17.4053V27.5555Z" fill="white"/>
<path d="M18.7573 27.5555H17.4053V28.9076H18.7573V27.5555Z" fill="white"/>
<path d="M20.1094 27.5555H18.7573V28.9076H20.1094V27.5555Z" fill="white"/>
<path d="M21.4614 27.5555H20.1094V28.9076H21.4614V27.5555Z" fill="white"/>
<path d="M22.7949 27.5555H21.4429V28.9076H22.7949V27.5555Z" fill="white"/>
<path d="M24.147 27.5555H22.7949V28.9076H24.147V27.5555Z" fill="white"/>
<path d="M25.499 27.5555H24.147V28.9076H25.499V27.5555Z" fill="white"/>
<path d="M26.8511 27.5555H25.499V28.9076H26.8511V27.5555Z" fill="white"/>
<path d="M28.2031 27.5555H26.8511V28.9076H28.2031V27.5555Z" fill="white"/>
<path d="M29.5552 27.5555H28.2031V28.9076H29.5552V27.5555Z" fill="white"/>
<path d="M30.8882 27.5555H29.5361V28.9076H30.8882V27.5555Z" fill="#1E1C1B"/>
<path d="M32.2403 27.5555H30.8882V28.9076H32.2403V27.5555Z" fill="black"/>
<path d="M33.5923 27.5555H32.2402V28.9076H33.5923V27.5555Z" fill="black"/>
<path d="M34.9444 27.5555H33.5923V28.9076H34.9444V27.5555Z" fill="#1F1F2D"/>
<path d="M36.2964 27.5555H34.9443V28.9076H36.2964V27.5555Z" fill="black"/>
<path d="M7.95998 28.8885H6.60791V30.2406H7.95998V28.8885Z" fill="black"/>
<path d="M9.31203 28.8885H7.95996V30.2406H9.31203V28.8885Z" fill="black"/>
<path d="M10.6641 28.8885H9.31201V30.2406H10.6641V28.8885Z" fill="#C1C1C1"/>
<path d="M12.0161 28.8885H10.6641V30.2406H12.0161V28.8885Z" fill="white"/>
<path d="M13.3682 28.8885H12.0161V30.2406H13.3682V28.8885Z" fill="white"/>
<path d="M14.7012 28.8885H13.3491V30.2406H14.7012V28.8885Z" fill="white"/>
<path d="M16.0532 28.8885H14.7012V30.2406H16.0532V28.8885Z" fill="white"/>
<path d="M17.4053 28.8885H16.0532V30.2406H17.4053V28.8885Z" fill="white"/>
<path d="M18.7573 28.8885H17.4053V30.2406H18.7573V28.8885Z" fill="white"/>
<path d="M20.1094 28.8885H18.7573V30.2406H20.1094V28.8885Z" fill="#79A1F7"/>
<path d="M21.4614 28.8885H20.1094V30.2406H21.4614V28.8885Z" fill="#79A1F7"/>
<path d="M22.7949 28.8885H21.4429V30.2406H22.7949V28.8885Z" fill="#C1C1C1"/>
<path d="M24.147 28.8885H22.7949V30.2406H24.147V28.8885Z" fill="white"/>
<path d="M25.499 28.8885H24.147V30.2406H25.499V28.8885Z" fill="white"/>
<path d="M26.8511 28.8885H25.499V30.2406H26.8511V28.8885Z" fill="white"/>
<path d="M28.2031 28.8885H26.8511V30.2406H28.2031V28.8885Z" fill="white"/>
<path d="M29.5552 28.8885H28.2031V30.2406H29.5552V28.8885Z" fill="white"/>
<path d="M30.8882 28.8885H29.5361V30.2406H30.8882V28.8885Z" fill="#C1C1C1"/>
<path d="M32.2403 28.8885H30.8882V30.2406H32.2403V28.8885Z" fill="black"/>
<path d="M33.5923 28.8885H32.2402V30.2406H33.5923V28.8885Z" fill="black"/>
<path d="M34.9444 28.8885H33.5923V30.2406H34.9444V28.8885Z" fill="#1F1F2D"/>
<path d="M36.2964 28.8885H34.9443V30.2406H36.2964V28.8885Z" fill="black"/>
<path d="M7.95998 30.2406H6.60791V31.5927H7.95998V30.2406Z" fill="black"/>
<path d="M9.31203 30.2406H7.95996V31.5927H9.31203V30.2406Z" fill="#1F1F2D"/>
<path d="M10.6641 30.2406H9.31201V31.5927H10.6641V30.2406Z" fill="white"/>
<path d="M12.0161 30.2406H10.6641V31.5927H12.0161V30.2406Z" fill="#C1C1C1"/>
<path d="M13.3682 30.2406H12.0161V31.5927H13.3682V30.2406Z" fill="white"/>
<path d="M14.7012 30.2406H13.3491V31.5927H14.7012V30.2406Z" fill="#588DDB"/>
<path d="M16.0532 30.2406H14.7012V31.5927H16.0532V30.2406Z" fill="#79A1F7"/>
<path d="M17.4053 30.2406H16.0532V31.5927H17.4053V30.2406Z" fill="#79A1F7"/>
<path d="M18.7573 30.2406H17.4053V31.5927H18.7573V30.2406Z" fill="#79A1F7"/>
<path d="M20.1094 30.2406H18.7573V31.5927H20.1094V30.2406Z" fill="#79A1F7"/>
<path d="M21.4614 30.2406H20.1094V31.5927H21.4614V30.2406Z" fill="#79A1F7"/>
<path d="M22.7949 30.2406H21.4429V31.5927H22.7949V30.2406Z" fill="#79A1F7"/>
<path d="M24.147 30.2406H22.7949V31.5927H24.147V30.2406Z" fill="#79A1F7"/>
<path d="M25.499 30.2406H24.147V31.5927H25.499V30.2406Z" fill="#79A1F7"/>
<path d="M26.8511 30.2406H25.499V31.5927H26.8511V30.2406Z" fill="#79A1F7"/>
<path d="M28.2031 30.2406H26.8511V31.5927H28.2031V30.2406Z" fill="#C1C1C1"/>
<path d="M29.5552 30.2406H28.2031V31.5927H29.5552V30.2406Z" fill="white"/>
<path d="M30.8882 30.2406H29.5361V31.5927H30.8882V30.2406Z" fill="white"/>
<path d="M32.2403 30.2406H30.8882V31.5927H32.2403V30.2406Z" fill="black"/>
<path d="M33.5923 30.2406H32.2402V31.5927H33.5923V30.2406Z" fill="#1F1F2D"/>
<path d="M34.9444 30.2406H33.5923V31.5927H34.9444V30.2406Z" fill="black"/>
<path d="M9.31203 31.5927H7.95996V32.9447H9.31203V31.5927Z" fill="black"/>
<path d="M10.6641 31.5927H9.31201V32.9447H10.6641V31.5927Z" fill="white"/>
<path d="M12.0161 31.5927H10.6641V32.9447H12.0161V31.5927Z" fill="black"/>
<path d="M13.3682 31.5927H12.0161V32.9447H13.3682V31.5927Z" fill="#1E1C1B"/>
<path d="M14.7012 31.5927H13.3491V32.9447H14.7012V31.5927Z" fill="#79A1F7"/>
<path d="M16.0532 31.5927H14.7012V32.9447H16.0532V31.5927Z" fill="#79A1F7"/>
<path d="M17.4053 31.5927H16.0532V32.9447H17.4053V31.5927Z" fill="#79A1F7"/>
<path d="M18.7573 31.5927H17.4053V32.9447H18.7573V31.5927Z" fill="#79A1F7"/>
<path d="M20.1094 31.5927H18.7573V32.9447H20.1094V31.5927Z" fill="#79A1F7"/>
<path d="M21.4614 31.5927H20.1094V32.9447H21.4614V31.5927Z" fill="#79A1F7"/>
<path d="M22.7949 31.5927H21.4429V32.9447H22.7949V31.5927Z" fill="#79A1F7"/>
<path d="M24.147 31.5927H22.7949V32.9447H24.147V31.5927Z" fill="#79A1F7"/>
<path d="M25.499 31.5927H24.147V32.9447H25.499V31.5927Z" fill="#79A1F7"/>
<path d="M26.8511 31.5927H25.499V32.9447H26.8511V31.5927Z" fill="#588DDB"/>
<path d="M28.2031 31.5927H26.8511V32.9447H28.2031V31.5927Z" fill="#1E1C1B"/>
<path d="M29.5552 31.5927H28.2031V32.9447H29.5552V31.5927Z" fill="#1E1C1B"/>
<path d="M30.8882 31.5927H29.5361V32.9447H30.8882V31.5927Z" fill="#C1C1C1"/>
<path d="M32.2403 31.5927H30.8882V32.9447H32.2403V31.5927Z" fill="#1F1F2D"/>
<path d="M33.5923 31.5927H32.2402V32.9447H33.5923V31.5927Z" fill="black"/>
<path d="M9.31203 32.9447H7.95996V34.2968H9.31203V32.9447Z" fill="black"/>
<path d="M10.6641 32.9447H9.31201V34.2968H10.6641V32.9447Z" fill="#1F1F2D"/>
<path d="M12.0161 32.9447H10.6641V34.2968H12.0161V32.9447Z" fill="black"/>
<path d="M13.3682 32.9447H12.0161V34.2968H13.3682V32.9447Z" fill="black"/>
<path d="M14.7012 32.9447H13.3491V34.2968H14.7012V32.9447Z" fill="#1E1C1B"/>
<path d="M16.0532 32.9447H14.7012V34.2968H16.0532V32.9447Z" fill="#79A1F7"/>
<path d="M17.4053 32.9447H16.0532V34.2968H17.4053V32.9447Z" fill="#79A1F7"/>
<path d="M18.7573 32.9447H17.4053V34.2968H18.7573V32.9447Z" fill="#79A1F7"/>
<path d="M20.1094 32.9447H18.7573V34.2968H20.1094V32.9447Z" fill="#79A1F7"/>
<path d="M21.4614 32.9447H20.1094V34.2968H21.4614V32.9447Z" fill="#79A1F7"/>
<path d="M22.7949 32.9447H21.4429V34.2968H22.7949V32.9447Z" fill="#79A1F7"/>
<path d="M24.147 32.9447H22.7949V34.2968H24.147V32.9447Z" fill="#588DDB"/>
<path d="M25.499 32.9447H24.147V34.2968H25.499V32.9447Z" fill="#79A1F7"/>
<path d="M26.8511 32.9447H25.499V34.2968H26.8511V32.9447Z" fill="#1E1C1B"/>
<path d="M28.2031 32.9447H26.8511V34.2968H28.2031V32.9447Z" fill="black"/>
<path d="M29.5552 32.9447H28.2031V34.2968H29.5552V32.9447Z" fill="black"/>
<path d="M30.8882 32.9447H29.5361V34.2968H30.8882V32.9447Z" fill="#1F1F2D"/>
<path d="M32.2403 32.9447H30.8882V34.2968H32.2403V32.9447Z" fill="black"/>
<path d="M10.6641 34.2777H9.31201V35.6298H10.6641V34.2777Z" fill="black"/>
<path d="M12.0161 34.2777H10.6641V35.6298H12.0161V34.2777Z" fill="#1F1F2D"/>
<path d="M13.3682 34.2777H12.0161V35.6298H13.3682V34.2777Z" fill="black"/>
<path d="M14.7012 34.2777H13.3491V35.6298H14.7012V34.2777Z" fill="black"/>
<path d="M16.0532 34.2777H14.7012V35.6298H16.0532V34.2777Z" fill="black"/>
<path d="M17.4053 34.2777H16.0532V35.6298H17.4053V34.2777Z" fill="black"/>
<path d="M18.7573 34.2777H17.4053V35.6298H18.7573V34.2777Z" fill="black"/>
<path d="M20.1094 34.2777H18.7573V35.6298H20.1094V34.2777Z" fill="black"/>
<path d="M21.4614 34.2777H20.1094V35.6298H21.4614V34.2777Z" fill="black"/>
<path d="M22.7949 34.2777H21.4429V35.6298H22.7949V34.2777Z" fill="black"/>
<path d="M24.147 34.2777H22.7949V35.6298H24.147V34.2777Z" fill="black"/>
<path d="M25.499 34.2777H24.147V35.6298H25.499V34.2777Z" fill="black"/>
<path d="M26.8511 34.2777H25.499V35.6298H26.8511V34.2777Z" fill="black"/>
<path d="M28.2031 34.2777H26.8511V35.6298H28.2031V34.2777Z" fill="black"/>
<path d="M29.5552 34.2777H28.2031V35.6298H29.5552V34.2777Z" fill="#1F1F2D"/>
<path d="M30.8882 34.2777H29.5361V35.6298H30.8882V34.2777Z" fill="black"/>
<path d="M12.0161 35.6298H10.6641V36.9819H12.0161V35.6298Z" fill="black"/>
<path d="M13.3682 35.6298H12.0161V36.9819H13.3682V35.6298Z" fill="black"/>
<path d="M14.7012 35.6298H13.3491V36.9819H14.7012V35.6298Z" fill="black"/>
<path d="M16.0532 35.6298H14.7012V36.9819H16.0532V35.6298Z" fill="black"/>
<path d="M17.4053 35.6298H16.0532V36.9819H17.4053V35.6298Z" fill="black"/>
<path d="M18.7573 35.6298H17.4053V36.9819H18.7573V35.6298Z" fill="black"/>
<path d="M20.1094 35.6298H18.7573V36.9819H20.1094V35.6298Z" fill="black"/>
<path d="M21.4614 35.6298H20.1094V36.9819H21.4614V35.6298Z" fill="black"/>
<path d="M22.7949 35.6298H21.4429V36.9819H22.7949V35.6298Z" fill="black"/>
<path d="M24.147 35.6298H22.7949V36.9819H24.147V35.6298Z" fill="black"/>
<path d="M25.499 35.6298H24.147V36.9819H25.499V35.6298Z" fill="black"/>
<path d="M26.8511 35.6298H25.499V36.9819H26.8511V35.6298Z" fill="black"/>
<path d="M28.2031 35.6298H26.8511V36.9819H28.2031V35.6298Z" fill="black"/>
<path d="M29.5552 35.6298H28.2031V36.9819H29.5552V35.6298Z" fill="black"/>
<path d="M12.0161 36.9819H10.6641V38.3339H12.0161V36.9819Z" fill="black"/>
<path d="M13.3682 36.9819H12.0161V38.3339H13.3682V36.9819Z" fill="black"/>
<path d="M14.7012 36.9819H13.3491V38.3339H14.7012V36.9819Z" fill="black"/>
<path d="M16.0532 36.9819H14.7012V38.3339H16.0532V36.9819Z" fill="black"/>
<path d="M17.4053 36.9819H16.0532V38.3339H17.4053V36.9819Z" fill="black"/>
<path d="M18.7573 36.9819H17.4053V38.3339H18.7573V36.9819Z" fill="black"/>
<path d="M20.1094 36.9819H18.7573V38.3339H20.1094V36.9819Z" fill="black"/>
<path d="M21.4614 36.9819H20.1094V38.3339H21.4614V36.9819Z" fill="black"/>
<path d="M22.7949 36.9819H21.4429V38.3339H22.7949V36.9819Z" fill="black"/>
<path d="M24.147 36.9819H22.7949V38.3339H24.147V36.9819Z" fill="black"/>
<path d="M25.499 36.9819H24.147V38.3339H25.499V36.9819Z" fill="black"/>
<path d="M26.8511 36.9819H25.499V38.3339H26.8511V36.9819Z" fill="black"/>
<path d="M28.2031 36.9819H26.8511V38.3339H28.2031V36.9819Z" fill="black"/>
<path d="M29.5552 36.9819H28.2031V38.3339H29.5552V36.9819Z" fill="black"/>
<path d="M10.6641 38.334H9.31201V39.686H10.6641V38.334Z" fill="black"/>
<path d="M12.0161 38.334H10.6641V39.686H12.0161V38.334Z" fill="black"/>
<path d="M13.3682 38.334H12.0161V39.686H13.3682V38.334Z" fill="black"/>
<path d="M16.0532 38.334H14.7012V39.686H16.0532V38.334Z" fill="black"/>
<path d="M17.4053 38.334H16.0532V39.686H17.4053V38.334Z" fill="black"/>
<path d="M18.7573 38.334H17.4053V39.686H18.7573V38.334Z" fill="black"/>
<path d="M20.1094 38.334H18.7573V39.686H20.1094V38.334Z" fill="black"/>
<path d="M21.4614 38.334H20.1094V39.686H21.4614V38.334Z" fill="black"/>
<path d="M22.7944 38.334H21.4424V39.686H22.7944V38.334Z" fill="black"/>
<path d="M24.1465 38.334H22.7944V39.686H24.1465V38.334Z" fill="black"/>
<path d="M25.4985 38.334H24.1465V39.686H25.4985V38.334Z" fill="black"/>
<path d="M28.2027 38.334H26.8506V39.686H28.2027V38.334Z" fill="black"/>
<path d="M29.5547 38.334H28.2026V39.686H29.5547V38.334Z" fill="black"/>
<path d="M30.8877 38.334H29.5356V39.686H30.8877V38.334Z" fill="black"/>
<path d="M10.6641 39.667H9.31201V41.0191H10.6641V39.667Z" fill="black"/>
<path d="M12.0161 39.667H10.6641V41.0191H12.0161V39.667Z" fill="black"/>
<path d="M16.0532 39.667H14.7012V41.0191H16.0532V39.667Z" fill="black"/>
<path d="M17.4053 39.667H16.0532V41.0191H17.4053V39.667Z" fill="black"/>
<path d="M18.7573 39.667H17.4053V41.0191H18.7573V39.667Z" fill="black"/>
<path d="M20.1094 39.667H18.7573V41.0191H20.1094V39.667Z" fill="black"/>
<path d="M21.4614 39.667H20.1094V41.0191H21.4614V39.667Z" fill="black"/>
<path d="M22.7944 39.667H21.4424V41.0191H22.7944V39.667Z" fill="black"/>
<path d="M24.1465 39.667H22.7944V41.0191H24.1465V39.667Z" fill="black"/>
<path d="M25.4985 39.667H24.1465V41.0191H25.4985V39.667Z" fill="black"/>
<path d="M29.5547 39.667H28.2026V41.0191H29.5547V39.667Z" fill="black"/>
<path d="M30.8877 39.667H29.5356V41.0191H30.8877V39.667Z" fill="black"/>
</g>
<defs>
<clipPath id="clip0_68_4563">
<rect width="41" height="41" fill="white"/>
</clipPath>
</defs>
</svg>
